<mxfile host="app.diagrams.net" agent="Mozilla/5.0 (Windows NT 10.0; Win64; x64) AppleWebKit/537.36 (KHTML, like Gecko) Chrome/129.0.0.0 Safari/537.36" version="24.7.16">
  <diagram name="Сторінка-1" id="2xmM2X2HUBCCEdo_aXaz">
    <mxGraphModel dx="643" dy="870" grid="1" gridSize="10" guides="1" tooltips="1" connect="1" arrows="1" fold="1" page="1" pageScale="1" pageWidth="827" pageHeight="1169" math="0" shadow="0">
      <root>
        <mxCell id="0" />
        <mxCell id="1" parent="0" />
        <mxCell id="rOii38Cz7jucbh1HtW5a-3" value="" style="edgeStyle=orthogonalEdgeStyle;rounded=0;orthogonalLoop=1;jettySize=auto;html=1;" edge="1" parent="1" source="rOii38Cz7jucbh1HtW5a-1" target="rOii38Cz7jucbh1HtW5a-2">
          <mxGeometry relative="1" as="geometry" />
        </mxCell>
        <mxCell id="rOii38Cz7jucbh1HtW5a-1" value="" style="ellipse;shape=doubleEllipse;html=1;dashed=0;whiteSpace=wrap;aspect=fixed;" vertex="1" parent="1">
          <mxGeometry x="394" y="30" width="40" height="40" as="geometry" />
        </mxCell>
        <mxCell id="rOii38Cz7jucbh1HtW5a-5" value="" style="edgeStyle=orthogonalEdgeStyle;rounded=0;orthogonalLoop=1;jettySize=auto;html=1;" edge="1" parent="1" source="rOii38Cz7jucbh1HtW5a-2" target="rOii38Cz7jucbh1HtW5a-4">
          <mxGeometry relative="1" as="geometry" />
        </mxCell>
        <mxCell id="rOii38Cz7jucbh1HtW5a-2" value="&lt;font color=&quot;#007fff&quot;&gt;ввід&lt;/font&gt; х" style="rounded=1;whiteSpace=wrap;html=1;strokeColor=#000000;" vertex="1" parent="1">
          <mxGeometry x="372" y="120" width="84" height="40" as="geometry" />
        </mxCell>
        <mxCell id="rOii38Cz7jucbh1HtW5a-7" value="" style="edgeStyle=orthogonalEdgeStyle;rounded=0;orthogonalLoop=1;jettySize=auto;html=1;" edge="1" parent="1" source="rOii38Cz7jucbh1HtW5a-4" target="rOii38Cz7jucbh1HtW5a-6">
          <mxGeometry relative="1" as="geometry" />
        </mxCell>
        <mxCell id="rOii38Cz7jucbh1HtW5a-13" value="" style="edgeStyle=orthogonalEdgeStyle;rounded=0;orthogonalLoop=1;jettySize=auto;html=1;" edge="1" parent="1" source="rOii38Cz7jucbh1HtW5a-4" target="rOii38Cz7jucbh1HtW5a-12">
          <mxGeometry relative="1" as="geometry" />
        </mxCell>
        <mxCell id="rOii38Cz7jucbh1HtW5a-4" value="" style="rhombus;whiteSpace=wrap;html=1;" vertex="1" parent="1">
          <mxGeometry x="397" y="200" width="34" height="40" as="geometry" />
        </mxCell>
        <mxCell id="rOii38Cz7jucbh1HtW5a-9" value="" style="edgeStyle=orthogonalEdgeStyle;rounded=0;orthogonalLoop=1;jettySize=auto;html=1;" edge="1" parent="1" source="rOii38Cz7jucbh1HtW5a-6" target="rOii38Cz7jucbh1HtW5a-8">
          <mxGeometry relative="1" as="geometry" />
        </mxCell>
        <mxCell id="rOii38Cz7jucbh1HtW5a-16" style="edgeStyle=orthogonalEdgeStyle;rounded=0;orthogonalLoop=1;jettySize=auto;html=1;entryX=0;entryY=0.5;entryDx=0;entryDy=0;" edge="1" parent="1" source="rOii38Cz7jucbh1HtW5a-6" target="rOii38Cz7jucbh1HtW5a-15">
          <mxGeometry relative="1" as="geometry" />
        </mxCell>
        <mxCell id="rOii38Cz7jucbh1HtW5a-6" value="" style="rhombus;whiteSpace=wrap;html=1;" vertex="1" parent="1">
          <mxGeometry x="397" y="320" width="34" height="40" as="geometry" />
        </mxCell>
        <mxCell id="rOii38Cz7jucbh1HtW5a-11" value="" style="edgeStyle=orthogonalEdgeStyle;rounded=0;orthogonalLoop=1;jettySize=auto;html=1;" edge="1" parent="1" source="rOii38Cz7jucbh1HtW5a-8" target="rOii38Cz7jucbh1HtW5a-10">
          <mxGeometry relative="1" as="geometry" />
        </mxCell>
        <mxCell id="rOii38Cz7jucbh1HtW5a-19" style="edgeStyle=orthogonalEdgeStyle;rounded=0;orthogonalLoop=1;jettySize=auto;html=1;entryX=0;entryY=0.5;entryDx=0;entryDy=0;" edge="1" parent="1" source="rOii38Cz7jucbh1HtW5a-8" target="rOii38Cz7jucbh1HtW5a-18">
          <mxGeometry relative="1" as="geometry" />
        </mxCell>
        <mxCell id="rOii38Cz7jucbh1HtW5a-8" value="" style="rhombus;whiteSpace=wrap;html=1;" vertex="1" parent="1">
          <mxGeometry x="397" y="440" width="34" height="40" as="geometry" />
        </mxCell>
        <mxCell id="rOii38Cz7jucbh1HtW5a-22" style="edgeStyle=orthogonalEdgeStyle;rounded=0;orthogonalLoop=1;jettySize=auto;html=1;entryX=0;entryY=0.5;entryDx=0;entryDy=0;" edge="1" parent="1" source="rOii38Cz7jucbh1HtW5a-10" target="rOii38Cz7jucbh1HtW5a-21">
          <mxGeometry relative="1" as="geometry" />
        </mxCell>
        <mxCell id="rOii38Cz7jucbh1HtW5a-25" value="" style="edgeStyle=orthogonalEdgeStyle;rounded=0;orthogonalLoop=1;jettySize=auto;html=1;" edge="1" parent="1" source="rOii38Cz7jucbh1HtW5a-10" target="rOii38Cz7jucbh1HtW5a-24">
          <mxGeometry relative="1" as="geometry" />
        </mxCell>
        <mxCell id="rOii38Cz7jucbh1HtW5a-10" value="" style="rhombus;whiteSpace=wrap;html=1;" vertex="1" parent="1">
          <mxGeometry x="397" y="560" width="34" height="40" as="geometry" />
        </mxCell>
        <mxCell id="rOii38Cz7jucbh1HtW5a-32" style="edgeStyle=orthogonalEdgeStyle;rounded=0;orthogonalLoop=1;jettySize=auto;html=1;entryX=0.5;entryY=0;entryDx=0;entryDy=0;" edge="1" parent="1" source="rOii38Cz7jucbh1HtW5a-12" target="rOii38Cz7jucbh1HtW5a-31">
          <mxGeometry relative="1" as="geometry" />
        </mxCell>
        <mxCell id="rOii38Cz7jucbh1HtW5a-12" value="y = x+3" style="whiteSpace=wrap;html=1;rounded=1;arcSize=37;" vertex="1" parent="1">
          <mxGeometry x="650" y="195" width="100" height="50" as="geometry" />
        </mxCell>
        <mxCell id="rOii38Cz7jucbh1HtW5a-14" value="[x &amp;lt;=-2]" style="text;html=1;align=center;verticalAlign=middle;resizable=0;points=[];autosize=1;strokeColor=none;fillColor=none;fontSize=15;" vertex="1" parent="1">
          <mxGeometry x="430" y="195" width="70" height="30" as="geometry" />
        </mxCell>
        <mxCell id="rOii38Cz7jucbh1HtW5a-33" value="" style="edgeStyle=orthogonalEdgeStyle;rounded=0;orthogonalLoop=1;jettySize=auto;html=1;" edge="1" parent="1" source="rOii38Cz7jucbh1HtW5a-15" target="rOii38Cz7jucbh1HtW5a-31">
          <mxGeometry relative="1" as="geometry" />
        </mxCell>
        <mxCell id="rOii38Cz7jucbh1HtW5a-15" value="y = ((-R * -1) / 6) * x - ((R - 2) / 3)" style="whiteSpace=wrap;html=1;rounded=1;arcSize=37;" vertex="1" parent="1">
          <mxGeometry x="650" y="315" width="190" height="50" as="geometry" />
        </mxCell>
        <mxCell id="rOii38Cz7jucbh1HtW5a-17" value="[-2 &amp;lt; x &amp;amp;&amp;amp; x &amp;lt;=4]" style="text;html=1;align=center;verticalAlign=middle;resizable=0;points=[];autosize=1;strokeColor=none;fillColor=none;fontSize=15;" vertex="1" parent="1">
          <mxGeometry x="420" y="315" width="140" height="30" as="geometry" />
        </mxCell>
        <mxCell id="rOii38Cz7jucbh1HtW5a-35" style="edgeStyle=orthogonalEdgeStyle;rounded=0;orthogonalLoop=1;jettySize=auto;html=1;entryX=0;entryY=0.5;entryDx=0;entryDy=0;" edge="1" parent="1" source="rOii38Cz7jucbh1HtW5a-18" target="rOii38Cz7jucbh1HtW5a-30">
          <mxGeometry relative="1" as="geometry" />
        </mxCell>
        <mxCell id="rOii38Cz7jucbh1HtW5a-18" value="y = -R" style="whiteSpace=wrap;html=1;rounded=1;arcSize=37;" vertex="1" parent="1">
          <mxGeometry x="650" y="435" width="100" height="50" as="geometry" />
        </mxCell>
        <mxCell id="rOii38Cz7jucbh1HtW5a-20" value="[4 &amp;lt; x &amp;amp;&amp;amp; x &amp;lt;=8 - R]" style="text;html=1;align=center;verticalAlign=middle;resizable=0;points=[];autosize=1;strokeColor=none;fillColor=none;fontSize=15;" vertex="1" parent="1">
          <mxGeometry x="430" y="435" width="150" height="30" as="geometry" />
        </mxCell>
        <mxCell id="rOii38Cz7jucbh1HtW5a-38" value="" style="edgeStyle=orthogonalEdgeStyle;rounded=0;orthogonalLoop=1;jettySize=auto;html=1;" edge="1" parent="1" source="rOii38Cz7jucbh1HtW5a-21" target="rOii38Cz7jucbh1HtW5a-36">
          <mxGeometry relative="1" as="geometry" />
        </mxCell>
        <mxCell id="rOii38Cz7jucbh1HtW5a-21" value="y = sqrt(R * R - (x - 8) * (x - 8))" style="whiteSpace=wrap;html=1;rounded=1;arcSize=37;" vertex="1" parent="1">
          <mxGeometry x="650" y="555" width="190" height="50" as="geometry" />
        </mxCell>
        <mxCell id="rOii38Cz7jucbh1HtW5a-23" value="[8 - R &amp;lt; x &amp;amp;&amp;amp; x &amp;lt;=8 + R]" style="text;html=1;align=center;verticalAlign=middle;resizable=0;points=[];autosize=1;strokeColor=none;fillColor=none;fontSize=15;" vertex="1" parent="1">
          <mxGeometry x="430" y="555" width="180" height="30" as="geometry" />
        </mxCell>
        <mxCell id="rOii38Cz7jucbh1HtW5a-41" value="" style="edgeStyle=orthogonalEdgeStyle;rounded=0;orthogonalLoop=1;jettySize=auto;html=1;" edge="1" parent="1" source="rOii38Cz7jucbh1HtW5a-24" target="rOii38Cz7jucbh1HtW5a-40">
          <mxGeometry relative="1" as="geometry" />
        </mxCell>
        <mxCell id="rOii38Cz7jucbh1HtW5a-24" value="y = -R" style="whiteSpace=wrap;html=1;rounded=1;arcSize=37;" vertex="1" parent="1">
          <mxGeometry x="363" y="660" width="100" height="50" as="geometry" />
        </mxCell>
        <mxCell id="rOii38Cz7jucbh1HtW5a-37" value="" style="edgeStyle=orthogonalEdgeStyle;rounded=0;orthogonalLoop=1;jettySize=auto;html=1;" edge="1" parent="1" source="rOii38Cz7jucbh1HtW5a-30" target="rOii38Cz7jucbh1HtW5a-36">
          <mxGeometry relative="1" as="geometry" />
        </mxCell>
        <mxCell id="rOii38Cz7jucbh1HtW5a-30" value="" style="rhombus;whiteSpace=wrap;html=1;" vertex="1" parent="1">
          <mxGeometry x="890" y="440" width="34" height="40" as="geometry" />
        </mxCell>
        <mxCell id="rOii38Cz7jucbh1HtW5a-34" value="" style="edgeStyle=orthogonalEdgeStyle;rounded=0;orthogonalLoop=1;jettySize=auto;html=1;" edge="1" parent="1" source="rOii38Cz7jucbh1HtW5a-31" target="rOii38Cz7jucbh1HtW5a-30">
          <mxGeometry relative="1" as="geometry" />
        </mxCell>
        <mxCell id="rOii38Cz7jucbh1HtW5a-31" value="" style="rhombus;whiteSpace=wrap;html=1;" vertex="1" parent="1">
          <mxGeometry x="890" y="320" width="34" height="40" as="geometry" />
        </mxCell>
        <mxCell id="rOii38Cz7jucbh1HtW5a-39" style="edgeStyle=orthogonalEdgeStyle;rounded=0;orthogonalLoop=1;jettySize=auto;html=1;entryX=1;entryY=0.5;entryDx=0;entryDy=0;" edge="1" parent="1" source="rOii38Cz7jucbh1HtW5a-36" target="rOii38Cz7jucbh1HtW5a-24">
          <mxGeometry relative="1" as="geometry">
            <mxPoint x="762" y="684.9999999999998" as="targetPoint" />
            <Array as="points">
              <mxPoint x="907" y="685" />
            </Array>
          </mxGeometry>
        </mxCell>
        <mxCell id="rOii38Cz7jucbh1HtW5a-36" value="" style="rhombus;whiteSpace=wrap;html=1;" vertex="1" parent="1">
          <mxGeometry x="890" y="560" width="34" height="40" as="geometry" />
        </mxCell>
        <mxCell id="rOii38Cz7jucbh1HtW5a-43" value="" style="edgeStyle=orthogonalEdgeStyle;rounded=0;orthogonalLoop=1;jettySize=auto;html=1;" edge="1" parent="1" source="rOii38Cz7jucbh1HtW5a-40" target="rOii38Cz7jucbh1HtW5a-42">
          <mxGeometry relative="1" as="geometry" />
        </mxCell>
        <mxCell id="rOii38Cz7jucbh1HtW5a-40" value="" style="rhombus;whiteSpace=wrap;html=1;" vertex="1" parent="1">
          <mxGeometry x="397" y="760" width="34" height="40" as="geometry" />
        </mxCell>
        <mxCell id="rOii38Cz7jucbh1HtW5a-45" value="" style="edgeStyle=orthogonalEdgeStyle;rounded=0;orthogonalLoop=1;jettySize=auto;html=1;" edge="1" parent="1" source="rOii38Cz7jucbh1HtW5a-42" target="rOii38Cz7jucbh1HtW5a-44">
          <mxGeometry relative="1" as="geometry" />
        </mxCell>
        <mxCell id="rOii38Cz7jucbh1HtW5a-42" value="&lt;font color=&quot;#007fff&quot;&gt;вивід &lt;/font&gt;у" style="rounded=1;whiteSpace=wrap;html=1;strokeColor=#000000;" vertex="1" parent="1">
          <mxGeometry x="372" y="860" width="84" height="40" as="geometry" />
        </mxCell>
        <mxCell id="rOii38Cz7jucbh1HtW5a-44" value="" style="ellipse;html=1;shape=endState;" vertex="1" parent="1">
          <mxGeometry x="398" y="950" width="30" height="30" as="geometry" />
        </mxCell>
      </root>
    </mxGraphModel>
  </diagram>
</mxfile>
